<svg xmlns="http://www.w3.org/2000/svg" width="110" height="125" fill="none" viewBox="0 0 110 125">
  <path fill="url(#a)" d="M91.9 2.5H17.4C9.171 2.5 2.5 9.171 2.5 17.4v89.4c0 8.229 6.671 14.9 14.9 14.9h74.5c8.229 0 14.9-6.671 14.9-14.9V17.4c0-8.229-6.671-14.9-14.9-14.9Z"/>
  <path fill="#fff" d="M32.3 65.08c5.76 0 10.43-4.67 10.43-10.43S38.06 44.22 32.3 44.22s-10.43 4.67-10.43 10.43 4.67 10.43 10.43 10.43Zm44.7 0c5.76 0 10.43-4.67 10.43-10.43S82.76 44.22 77 44.22s-10.43 4.67-10.43 10.43S71.24 65.08 77 65.08Z"/>
  <path fill="#2C2C2A" d="M104.3 17.4c0-6.848-5.551-12.4-12.4-12.4H17.4C10.552 5 5 10.552 5 17.4v89.4c0 6.848 5.552 12.4 12.4 12.4h74.5c6.849 0 12.4-5.552 12.4-12.4V17.4ZM75.232 82.683a2.5 2.5 0 1 1 3.536 3.535c-7.723 7.722-15.77 11.907-24.118 11.907-8.346 0-16.395-4.185-24.118-11.907a2.5 2.5 0 0 1 3.535-3.535c7.178 7.177 14.03 10.442 20.583 10.442 6.553 0 13.405-3.265 20.582-10.442ZM40.23 54.65a7.931 7.931 0 1 0-15.862.001 7.931 7.931 0 0 0 15.863 0Zm44.7 0a7.93 7.93 0 1 0-15.861 0 7.93 7.93 0 0 0 15.86 0Zm-39.7 0c0 7.141-5.79 12.93-12.93 12.93-7.141 0-12.93-5.789-12.93-12.93 0-7.14 5.789-12.93 12.93-12.93 7.14 0 12.93 5.79 12.93 12.93Zm44.7 0c0 7.141-5.79 12.93-12.93 12.93s-12.93-5.789-12.93-12.93c0-7.14 5.789-12.93 12.93-12.93s12.93 5.79 12.93 12.93Zm19.37 52.15c0 9.609-7.79 17.4-17.4 17.4H17.4c-9.61 0-17.4-7.79-17.4-17.4V17.4C0 7.79 7.79 0 17.4 0h74.5c9.61 0 17.4 7.79 17.4 17.4v89.4Z"/>
  <defs>
    <linearGradient id="a" x1="0" x2="123.193" y1="0" y2="108.413" gradientUnits="userSpaceOnUse">
      <stop stop-color="#818CF8"/>
      <stop offset="1" stop-color="#EC4899"/>
    </linearGradient>
  </defs>
</svg>
