<svg xmlns="http://www.w3.org/2000/svg" width="118" height="118" fill="none" viewBox="0 0 118 118">
  <path fill="#F43F5E" d="M44.455 49.399 42.8 32.528v-7.8h6.893v7.8l-1.632 16.87h-3.606Zm-1.383 8.571v-6.372h6.372v6.372h-6.372Z"/>
  <path fill="#2C2C2A" d="M49.444 51.598v6.372h-6.372v-6.372h6.372Zm-5.372 5.373h4.371v-4.373h-4.37v4.373Zm5.621-32.244v7.8L48.061 49.4h-3.606L42.8 32.528v-7.8h6.893ZM43.8 32.48l1.56 15.92h1.792l1.54-15.918v-6.754H43.8v6.752Z"/>
  <path fill="url(#a)" fill-rule="evenodd" d="M46.36 74.74a28.258 28.258 0 0 0 17.433-5.984 28.546 28.546 0 0 0 4.963-4.963A28.257 28.257 0 0 0 74.74 46.36c0-15.674-12.706-28.38-28.38-28.38S17.98 30.686 17.98 46.36s12.706 28.38 28.38 28.38Zm36.739-4.413A43.655 43.655 0 0 0 90.22 46.36c0-24.223-19.637-43.86-43.86-43.86S2.5 22.137 2.5 46.36s19.637 43.86 43.86 43.86a43.655 43.655 0 0 0 23.967-7.121l28.987 28.987a9.032 9.032 0 0 0 12.772 0 9.033 9.033 0 0 0 0-12.772L83.099 70.327Z" clip-rule="evenodd"/>
  <path fill="#2C2C2A" d="M87.72 46.36C87.72 23.518 69.203 5 46.36 5 23.518 5 5 23.518 5 46.36c0 22.843 18.518 41.36 41.36 41.36a41.155 41.155 0 0 0 22.599-6.714l1.7-1.112 30.423 30.424a6.532 6.532 0 0 0 9.236-9.236L79.894 70.659l1.112-1.7A41.154 41.154 0 0 0 87.72 46.36Zm-15.48 0c0-14.293-11.587-25.88-25.88-25.88S20.48 32.067 20.48 46.36s11.587 25.88 25.88 25.88a25.758 25.758 0 0 0 15.896-5.456 26.056 26.056 0 0 0 4.528-4.528A25.758 25.758 0 0 0 72.24 46.36Zm5 0a30.758 30.758 0 0 1-6.511 18.97 31.052 31.052 0 0 1-5.399 5.398 30.758 30.758 0 0 1-18.97 6.512c-17.054 0-30.88-13.825-30.88-30.88 0-17.054 13.826-30.88 30.88-30.88 17.055 0 30.88 13.826 30.88 30.88Zm15.48 0a46.151 46.151 0 0 1-6.452 23.6l27.586 27.587c4.502 4.503 4.502 11.804 0 16.307-4.503 4.502-11.804 4.502-16.307 0L69.96 86.268a46.151 46.151 0 0 1-23.6 6.452C20.756 92.72 0 71.964 0 46.36S20.756 0 46.36 0s46.36 20.756 46.36 46.36Z"/>
  <defs>
    <linearGradient id="a" x1="72.16" x2="105.7" y1="72.16" y2="105.7" gradientUnits="userSpaceOnUse">
      <stop stop-color="#C084FC"/>
      <stop offset="1" stop-color="#DB2777"/>
    </linearGradient>
  </defs>
</svg>
