<svg xmlns="http://www.w3.org/2000/svg" width="452" height="301" fill="none" viewBox="0 0 452 301">
  <path fill="#A07CFF" d="M55.554 89.057a18.24 18.24 0 0 1 36.315 0 18.238 18.238 0 0 0 25.87 14.926 18.242 18.242 0 0 1 23.333 7.484 18.235 18.235 0 0 1-5.172 23.951 18.239 18.239 0 0 0 0 29.861 18.242 18.242 0 0 1 5.172 23.952 18.238 18.238 0 0 1-23.333 7.483 18.243 18.243 0 0 0-23.079 6.724 18.238 18.238 0 0 0-2.791 8.203 18.237 18.237 0 0 1-18.157 16.513 18.237 18.237 0 0 1-18.158-16.513 18.239 18.239 0 0 0-25.878-14.927 18.236 18.236 0 0 1-25.368-20.457 18.241 18.241 0 0 1 7.207-10.978 18.242 18.242 0 0 0 7.763-14.93 18.235 18.235 0 0 0-7.763-14.931 18.238 18.238 0 0 1 18.154-31.435 18.242 18.242 0 0 0 25.87-14.926"/>
  <path fill="#D9D9D9" d="M73.708 173.736c12.914 0 23.383-10.469 23.383-23.383 0-12.915-10.469-23.384-23.383-23.384-12.915 0-23.384 10.469-23.384 23.384 0 12.914 10.47 23.383 23.384 23.383Z"/>
  <path stroke="#2C2C2A" stroke-linecap="round" stroke-linejoin="round" stroke-width="7.795" d="M55.554 89.057a18.24 18.24 0 0 1 36.315 0 18.238 18.238 0 0 0 25.87 14.926 18.242 18.242 0 0 1 23.333 7.484 18.235 18.235 0 0 1-5.172 23.951 18.239 18.239 0 0 0 0 29.861 18.242 18.242 0 0 1 5.172 23.952 18.238 18.238 0 0 1-23.333 7.483 18.243 18.243 0 0 0-23.079 6.724 18.238 18.238 0 0 0-2.791 8.203 18.237 18.237 0 0 1-18.157 16.513 18.237 18.237 0 0 1-18.158-16.513 18.239 18.239 0 0 0-25.878-14.927 18.236 18.236 0 0 1-25.368-20.457 18.241 18.241 0 0 1 7.207-10.978 18.242 18.242 0 0 0 7.763-14.93 18.235 18.235 0 0 0-7.763-14.931 18.238 18.238 0 0 1 18.154-31.435 18.242 18.242 0 0 0 25.87-14.926m41.552 61.296c0 12.914-10.469 23.383-23.383 23.383-12.915 0-23.384-10.469-23.384-23.383 0-12.915 10.47-23.384 23.384-23.384s23.383 10.469 23.383 23.384Z"/>
  <path fill="#D9D9D9" d="M103.55 22.967a11.266 11.266 0 0 1 4.788-14.38 11.263 11.263 0 0 1 14.768 3.406 11.264 11.264 0 0 0 18.443.221 11.262 11.262 0 0 1 19.28 11.442 11.257 11.257 0 0 0 .331 10.386 11.261 11.261 0 0 0 8.692 5.695 11.265 11.265 0 0 1 7.009 18.865 11.26 11.26 0 0 1-7.29 3.552 11.264 11.264 0 0 0-9.421 15.856 11.266 11.266 0 0 1-4.789 14.38 11.264 11.264 0 0 1-14.768-3.406 11.27 11.27 0 0 0-9.167-4.909 11.265 11.265 0 0 0-9.28 4.69 11.262 11.262 0 0 1-19.844-3.35 11.263 11.263 0 0 1 .564-8.09 11.257 11.257 0 0 0-.331-10.387 11.261 11.261 0 0 0-8.692-5.695 11.263 11.263 0 0 1 .277-22.415 11.263 11.263 0 0 0 9.421-15.856"/>
  <path fill="#A07CFF" d="M138.915 63.085c6.955-3.903 9.429-12.704 5.527-19.66-3.903-6.954-12.705-9.428-19.659-5.526-6.955 3.902-9.43 12.704-5.527 19.66 3.902 6.954 12.704 9.428 19.659 5.526Z"/>
  <path stroke="#2C2C2A" stroke-linecap="round" stroke-linejoin="round" stroke-width="4.813" d="M103.55 22.967a11.266 11.266 0 0 1 4.788-14.38 11.263 11.263 0 0 1 14.768 3.406 11.264 11.264 0 0 0 18.443.221 11.262 11.262 0 0 1 19.28 11.442 11.257 11.257 0 0 0 .331 10.386 11.261 11.261 0 0 0 8.692 5.695 11.265 11.265 0 0 1 7.009 18.865 11.26 11.26 0 0 1-7.29 3.552 11.264 11.264 0 0 0-9.421 15.856 11.266 11.266 0 0 1-4.789 14.38 11.264 11.264 0 0 1-14.768-3.406 11.27 11.27 0 0 0-9.167-4.909 11.265 11.265 0 0 0-9.28 4.69 11.262 11.262 0 0 1-19.844-3.35 11.263 11.263 0 0 1 .564-8.09 11.257 11.257 0 0 0-.331-10.387 11.261 11.261 0 0 0-8.692-5.695 11.263 11.263 0 0 1 .277-22.415 11.263 11.263 0 0 0 9.421-15.856m40.901 20.454c3.902 6.955 1.428 15.756-5.527 19.659-6.955 3.902-15.757 1.428-19.659-5.527-3.903-6.955-1.428-15.757 5.527-19.659 6.954-3.903 15.756-1.428 19.659 5.527Z"/>
  <path fill="#D9D9D9" d="M103.344 222.283a11.266 11.266 0 0 1 4.789-14.38 11.265 11.265 0 0 1 14.768 3.406 11.262 11.262 0 0 0 18.443.221 11.261 11.261 0 0 1 19.844 3.351 11.263 11.263 0 0 1-.564 8.09 11.26 11.26 0 0 0 .331 10.387 11.273 11.273 0 0 0 8.692 5.695 11.263 11.263 0 0 1-.281 22.417 11.256 11.256 0 0 0-8.835 5.478 11.259 11.259 0 0 0-.587 10.378 11.266 11.266 0 0 1-4.788 14.38 11.265 11.265 0 0 1-14.769-3.406 11.267 11.267 0 0 0-9.166-4.909 11.264 11.264 0 0 0-9.28 4.69 11.262 11.262 0 0 1-19.844-3.351 11.263 11.263 0 0 1 .564-8.09 11.272 11.272 0 0 0-.331-10.387 11.258 11.258 0 0 0-8.693-5.694 11.262 11.262 0 0 1-7.004-18.858 11.262 11.262 0 0 1 7.282-3.557 11.273 11.273 0 0 0 10.397-10.595 11.252 11.252 0 0 0-.976-5.261"/>
  <path fill="#A07CFF" d="M138.71 262.401c6.955-3.903 9.429-12.704 5.526-19.659-3.902-6.955-12.704-9.43-19.659-5.527-6.955 3.902-9.429 12.704-5.526 19.659 3.902 6.955 12.704 9.429 19.659 5.527Z"/>
  <path stroke="#2C2C2A" stroke-linecap="round" stroke-linejoin="round" stroke-width="4.813" d="M103.344 222.283a11.266 11.266 0 0 1 4.789-14.38 11.265 11.265 0 0 1 14.768 3.406 11.262 11.262 0 0 0 18.443.221 11.261 11.261 0 0 1 19.844 3.351 11.263 11.263 0 0 1-.564 8.09 11.26 11.26 0 0 0 .331 10.387 11.273 11.273 0 0 0 8.692 5.695 11.263 11.263 0 0 1-.281 22.417 11.256 11.256 0 0 0-8.835 5.478 11.259 11.259 0 0 0-.587 10.378 11.266 11.266 0 0 1-4.788 14.38 11.265 11.265 0 0 1-14.769-3.406 11.267 11.267 0 0 0-9.166-4.909 11.264 11.264 0 0 0-9.28 4.69 11.262 11.262 0 0 1-19.844-3.351 11.263 11.263 0 0 1 .564-8.09 11.272 11.272 0 0 0-.331-10.387 11.258 11.258 0 0 0-8.693-5.694 11.262 11.262 0 0 1-7.004-18.858 11.262 11.262 0 0 1 7.282-3.557 11.273 11.273 0 0 0 10.397-10.595 11.252 11.252 0 0 0-.976-5.261m40.9 20.454c3.903 6.955 1.429 15.756-5.526 19.659-6.955 3.902-15.757 1.428-19.659-5.527-3.903-6.955-1.429-15.757 5.526-19.659 6.955-3.903 15.757-1.428 19.659 5.527Z"/>
  <path fill="#A07CFF" d="M322.816 50.151a42.885 42.885 0 0 0-12.831-30.716 42.89 42.89 0 0 0-30.941-12.28 42.879 42.879 0 0 0-41.942 44.783 57.171 57.171 0 0 0-36.104 82.469 57.179 57.179 0 0 0-20.919 49.182 57.177 57.177 0 0 0 28.866 44.979 57.173 57.173 0 0 0 52.997 64.38 57.167 57.167 0 0 0 60.874-56.991V50.151Z"/>
  <path fill="#2C2C2A" d="M422.866 278.836c0-5.29 2.873-9.909 7.145-12.381v-1.912a21.442 21.442 0 0 0-21.438-21.439h-79.017a64.311 64.311 0 0 1-68.076 56.975 64.315 64.315 0 0 1-60.053-67.747 64.33 64.33 0 0 1-18.509-18.813 64.318 64.318 0 0 1 9.309-80.867 64.302 64.302 0 0 1 .193-51.137 64.321 64.321 0 0 1 37.608-34.892A50.03 50.03 0 0 1 278.895.011a50.026 50.026 0 0 1 51.067 50.14v35.732h42.878V50.152A35.733 35.733 0 0 1 394.992 17.1c1.875-5.707 7.246-9.828 13.581-9.828 7.893 0 14.293 6.399 14.293 14.293 0 7.893-6.4 14.292-14.293 14.293a14.252 14.252 0 0 1-10.379-4.466 21.44 21.44 0 0 0-11.061 18.759v35.73h37.645c2.471-4.27 7.09-7.145 12.38-7.146 7.893 0 14.292 6.4 14.293 14.293 0 7.894-6.4 14.293-14.293 14.293-5.291 0-9.909-2.874-12.38-7.146h-94.816v57.171h37.645c2.471-4.272 7.09-7.147 12.38-7.147 7.893 0 14.293 6.4 14.293 14.293 0 7.894-6.4 14.293-14.293 14.293-5.29 0-9.909-2.874-12.38-7.146h-37.645v57.171h78.611a35.734 35.734 0 0 1 35.731 35.732v1.912c4.272 2.471 7.147 7.091 7.147 12.381-.001 7.894-6.4 14.292-14.293 14.292-7.894 0-14.292-6.398-14.292-14.292ZM279.193 14.301a35.735 35.735 0 0 0-32.772 23.337 35.75 35.75 0 0 0-2.209 13.089l.03.892.001.027a35.722 35.722 0 0 0 4.74 16.378 7.146 7.146 0 0 1-12.385 7.133 50.012 50.012 0 0 1-5.379-13.648 50.024 50.024 0 0 0-12.295 7.696 50.028 50.028 0 0 0-17.569 40.133 50.01 50.01 0 0 0 2.682 14.243 65.494 65.494 0 0 1 1.855-1.068 7.146 7.146 0 0 1 6.936 12.497 49.998 49.998 0 0 0-7.317 4.938l-.007.006a50.029 50.029 0 0 0-18.304 43.033 50.018 50.018 0 0 0 25.256 39.357l.707.39a50.028 50.028 0 0 0 23.893 6.077 7.146 7.146 0 0 1 .006 14.293 64.24 64.24 0 0 1-21.315-3.634 50.016 50.016 0 0 0 27.089 40.949 50.026 50.026 0 0 0 68.694-24.596 50.03 50.03 0 0 0 4.139-19.866v-89.133a71.452 71.452 0 0 1-33.36 24.41 7.146 7.146 0 1 1-4.743-13.482 57.166 57.166 0 0 0 38.103-50.653V50.13a35.735 35.735 0 0 0-10.692-25.597 35.734 35.734 0 0 0-25.784-10.232Z"/>
</svg>
