<svg xmlns="http://www.w3.org/2000/svg" width="279" height="301" fill="none" viewBox="0 0 279 301">
  <path fill="#A07CFF" d="M150.086 50.151a42.885 42.885 0 0 0-12.831-30.716 42.87 42.87 0 0 0-30.941-12.28 42.88 42.88 0 0 0-41.942 44.783 57.17 57.17 0 0 0-36.103 82.469 57.174 57.174 0 0 0-12.066 75.252 57.176 57.176 0 0 0 20.012 18.909 57.17 57.17 0 1 0 113.871 7.389V50.151Z"/>
  <path fill="#2C2C2A" d="M250.136 278.836c0-5.29 2.874-9.909 7.146-12.381v-1.912a21.44 21.44 0 0 0-21.439-21.439h-79.017a64.311 64.311 0 0 1-68.076 56.975 64.318 64.318 0 0 1-60.052-67.747A64.318 64.318 0 0 1 .228 184.19a64.319 64.319 0 0 1 19.27-51.538A64.311 64.311 0 0 1 36.933 58.32a64.316 64.316 0 0 1 20.364-11.697A50.03 50.03 0 0 1 106.165.011a50.026 50.026 0 0 1 51.068 50.14v35.732h42.878V50.152A35.732 35.732 0 0 1 222.262 17.1c1.875-5.707 7.247-9.828 13.581-9.828 7.894 0 14.293 6.399 14.293 14.293 0 7.893-6.399 14.292-14.293 14.293a14.254 14.254 0 0 1-10.379-4.466 21.438 21.438 0 0 0-11.06 18.759v35.73h37.644c2.471-4.27 7.09-7.145 12.38-7.146 7.894 0 14.293 6.4 14.293 14.293 0 7.894-6.399 14.293-14.293 14.293-5.29 0-9.909-2.874-12.38-7.146h-94.815v57.171h37.644c2.472-4.272 7.09-7.147 12.38-7.147 7.894 0 14.293 6.4 14.293 14.293 0 7.894-6.399 14.293-14.293 14.293-5.29 0-9.908-2.874-12.38-7.146h-37.644v57.171h78.61a35.734 35.734 0 0 1 25.266 10.465 35.734 35.734 0 0 1 10.465 25.267v1.912c4.273 2.471 7.147 7.091 7.147 12.381 0 7.894-6.399 14.292-14.293 14.292-7.893 0-14.292-6.398-14.292-14.292ZM106.463 14.301a35.731 35.731 0 0 0-34.98 36.426l.029.892.001.027a35.734 35.734 0 0 0 4.74 16.378 7.146 7.146 0 0 1-12.385 7.134 50.025 50.025 0 0 1-5.379-13.65 50.025 50.025 0 0 0-27.183 62.072 66.661 66.661 0 0 1 1.856-1.067 7.146 7.146 0 0 1 9.716 2.781 7.146 7.146 0 0 1-2.78 9.716 50.003 50.003 0 0 0-7.316 4.938l-.007.006a50.024 50.024 0 0 0 6.952 82.39l.707.39a50.026 50.026 0 0 0 23.892 6.077 7.147 7.147 0 0 1 .006 14.293 64.236 64.236 0 0 1-21.314-3.634 50.023 50.023 0 0 0 27.089 40.949 50.024 50.024 0 0 0 72.833-44.462v-89.133a71.45 71.45 0 0 1-33.361 24.41 7.146 7.146 0 1 1-4.743-13.482 57.164 57.164 0 0 0 38.104-50.653V50.13a35.736 35.736 0 0 0-22.551-33.317 35.734 35.734 0 0 0-13.926-2.512Z"/>
</svg>
