<svg xmlns="http://www.w3.org/2000/svg" width="120" height="112" fill="none" viewBox="0 0 120 112">
  <path fill="url(#a)" d="M65.499 34.195a5.128 5.128 0 0 1 7.208.653c5.407 6.47 8.5 13.42 8.5 20.767 0 7.348-3.093 14.298-8.5 20.767a5.128 5.128 0 0 1-7.208.654 5.093 5.093 0 0 1-.656-7.188c4.343-5.197 6.126-9.914 6.126-14.233 0-4.318-1.783-9.036-6.126-14.233a5.093 5.093 0 0 1 .656-7.187Z"/>
  <path fill="url(#b)" d="M78.808 19.493a5.128 5.128 0 0 1 7.18.919c8.794 11.349 13.5 23.11 13.5 35.203 0 12.093-4.706 23.855-13.5 35.204a5.128 5.128 0 0 1-7.18.919 5.094 5.094 0 0 1-.92-7.16c7.78-10.04 11.362-19.667 11.362-28.963 0-9.295-3.583-18.923-11.363-28.963a5.094 5.094 0 0 1 .921-7.159Z"/>
  <path fill="url(#c)" d="M93.575 4.804a5.129 5.129 0 0 1 7.144 1.165C112.41 22.19 118.5 38.764 118.5 55.615s-6.09 33.427-17.781 49.646a5.129 5.129 0 0 1-7.144 1.165 5.094 5.094 0 0 1-1.169-7.123c10.734-14.892 15.856-29.428 15.856-43.688 0-14.26-5.122-28.796-15.856-43.687a5.095 5.095 0 0 1 1.169-7.124Z"/>
  <path fill="url(#d)" d="M27.825 35.98v-9.531l29.25-23.334v105l-29.25-23.333v-9.53a5.84 5.84 0 0 1-2.925.78H7.35c-3.23 0-5.85-2.612-5.85-5.833V41.032c0-3.222 2.62-5.833 5.85-5.833H24.9c1.066 0 2.065.284 2.925.78Z"/>
  <path stroke="#2C2C2A" stroke-linecap="round" stroke-width="3" d="M65.499 34.195a5.128 5.128 0 0 1 7.208.653c5.407 6.47 8.5 13.42 8.5 20.767 0 7.348-3.093 14.298-8.5 20.767a5.128 5.128 0 0 1-7.208.654 5.093 5.093 0 0 1-.656-7.188c4.343-5.197 6.126-9.914 6.126-14.233 0-4.318-1.783-9.036-6.126-14.233a5.093 5.093 0 0 1 .656-7.187Z"/>
  <path stroke="#2C2C2A" stroke-linecap="round" stroke-width="3" d="M78.808 19.493a5.128 5.128 0 0 1 7.18.919c8.794 11.349 13.5 23.11 13.5 35.203 0 12.093-4.706 23.855-13.5 35.204a5.128 5.128 0 0 1-7.18.919 5.094 5.094 0 0 1-.92-7.16c7.78-10.04 11.362-19.667 11.362-28.963 0-9.295-3.583-18.923-11.363-28.963a5.094 5.094 0 0 1 .921-7.159Z"/>
  <path stroke="#2C2C2A" stroke-linecap="round" stroke-width="3" d="M93.575 4.804a5.129 5.129 0 0 1 7.144 1.165C112.41 22.19 118.5 38.764 118.5 55.615s-6.09 33.427-17.781 49.646a5.129 5.129 0 0 1-7.144 1.165 5.094 5.094 0 0 1-1.169-7.123c10.734-14.892 15.856-29.428 15.856-43.688 0-14.26-5.122-28.796-15.856-43.687a5.095 5.095 0 0 1 1.169-7.124ZM27.825 35.98v-9.531l29.25-23.334v105l-29.25-23.333v-9.53a5.84 5.84 0 0 1-2.925.78H7.35c-3.23 0-5.85-2.612-5.85-5.833V41.032c0-3.222 2.62-5.833 5.85-5.833H24.9c1.066 0 2.065.284 2.925.78Z"/>
  <defs>
    <linearGradient id="a" x1="96.562" x2="129.142" y1="8.949" y2="14.819" gradientUnits="userSpaceOnUse">
      <stop stop-color="#C084FC"/>
      <stop offset="1" stop-color="#DB2777"/>
    </linearGradient>
    <linearGradient id="b" x1="96.562" x2="129.142" y1="8.949" y2="14.819" gradientUnits="userSpaceOnUse">
      <stop stop-color="#C084FC"/>
      <stop offset="1" stop-color="#DB2777"/>
    </linearGradient>
    <linearGradient id="c" x1="96.562" x2="129.142" y1="8.949" y2="14.819" gradientUnits="userSpaceOnUse">
      <stop stop-color="#C084FC"/>
      <stop offset="1" stop-color="#DB2777"/>
    </linearGradient>
    <linearGradient id="d" x1="96.562" x2="129.142" y1="8.949" y2="14.819" gradientUnits="userSpaceOnUse">
      <stop stop-color="#C084FC"/>
      <stop offset="1" stop-color="#DB2777"/>
    </linearGradient>
  </defs>
</svg>
